# xmcd CD database file
#
# Track frame offsets:
#	180
#	14128
#	28977
#	42744
#	56511
#	68321
#	82015
#	96766
#	110120
#	125492
#	138458
#	150322
#	163659
#	176646
#
# Disc length: 2546 seconds
#
# Revision: 0
# Processed by: cddbd v1.4PL0 Copyright (c) Steve Scherf et al.
# Submitted via: CDex 1.50Beta7
#
DISCID=c309f00e
DTITLE=Various Artist - Country Blues (Vol. 2)
DYEAR=2001
DGENRE=Blues
TTITLE0=(A-1) Levee Camp Moan Blues - Texas Alexander
TTITLE1=(A-2) Tishamingo Blues - Peg Leg Howell
TTITLE2=(A-3) Mistreated Blues - Henry Townsend
TTITLE3=(A-4) Poole County Blues - Eddie Kelly's Washboard Band
TTITLE4=(A-5) Papa's Lawdy, Lawdy Blues - Papa Charlie Jackson
TTITLE5=(A-6) Scarey Day Blues - ''Georgia Bill''
TTITLE6=(A-7) Church Bells Blues - Luke Jordan
TTITLE7=(B-1) I'm an Old Bumble Bee - Bo Carter
TTITLE8=(B-2) Jealous Hearted Blues - Charlie Lincoln
TTITLE9=(B-3) Strange Place Blues - Bukka White
TTITLE10=(B-4) Bye-Bye, Baby Blues - Blind Boy Fuller w-Sonny Terry
TTITLE11=(B-5) Let Me Squeeze Your Lemon - Charlie Pickett
TTITLE12=(B-6) Weary Worried Blues - Brownsville Son Band
TTITLE13=(B-7) Maceo's 32-20 - Big Maceo w-Tempa Red
EXTD=YEAR: 2001
EXTT0=
EXTT1=
EXTT2=
EXTT3=
EXTT4=
EXTT5=
EXTT6=
EXTT7=
EXTT8=
EXTT9=
EXTT10=
EXTT11=
EXTT12=
EXTT13=
PLAYORDER=
